<svg version="1.1" id="Layer_1" xmlns="http://www.w3.org/2000/svg" xmlns:xlink="http://www.w3.org/1999/xlink" x="0px" y="0px" width="30%" height="30%" viewBox="0 0 350.25 139.25" enable-background="new 0 0 350.25 139.25" xml:space="preserve"> <g> <path fill="#FFFFFF" d="M248.961,81.99c4.559,0,7.822-0.949,9.791-2.852c1.969-1.903,2.953-4.469,2.953-7.695 c0-2.119-0.396-3.876-1.188-5.273c-0.792-1.396-1.872-2.516-3.24-3.359c-1.368-0.842-2.952-1.444-4.752-1.805 c-1.8-0.361-3.708-0.543-5.724-0.543h-0.721v-3.888h1.656c1.297,0,2.629-0.131,3.996-0.394c1.368-0.264,2.615-0.753,3.744-1.471 c1.127-0.718,2.063-1.674,2.809-2.869c0.743-1.194,1.115-2.725,1.115-4.59c0-1.577-0.264-2.927-0.792-4.051 c-0.528-1.123-1.236-2.02-2.124-2.689c-0.889-0.669-1.92-1.16-3.096-1.47c-1.177-0.311-2.412-0.467-3.708-0.467 c-2.593,0-4.608,0.36-6.048,1.08c-1.44,0.72-2.617,1.393-3.528,2.016l-2.017-3.672c0.48-0.335,1.092-0.72,1.836-1.152 c0.744-0.432,1.621-0.839,2.629-1.224c1.008-0.384,2.124-0.708,3.348-0.972c1.225-0.263,2.557-0.396,3.996-0.396 c2.495,0,4.645,0.312,6.443,0.935c1.801,0.623,3.301,1.497,4.5,2.624c1.199,1.127,2.089,2.469,2.664,4.026 c0.576,1.558,0.865,3.248,0.865,5.068c0,2.924-0.781,5.309-2.341,7.154s-3.563,3.175-6.012,3.989 c1.343,0.338,2.651,0.854,3.924,1.551c1.271,0.697,2.412,1.586,3.42,2.667c1.009,1.083,1.823,2.392,2.448,3.93 c0.623,1.538,0.936,3.341,0.936,5.405c0,2.115-0.372,4.063-1.115,5.84c-0.745,1.779-1.849,3.329-3.313,4.65 c-1.465,1.321-3.324,2.355-5.58,3.1s-4.896,1.117-7.92,1.117c-1.584,0-3.036-0.107-4.355-0.324 c-1.321-0.215-2.484-0.467-3.492-0.756c-1.008-0.287-1.861-0.576-2.557-0.863c-0.695-0.288-1.213-0.527-1.547-0.721l1.223-4.176 c0.289,0.193,0.768,0.432,1.44,0.721c0.672,0.287,1.476,0.564,2.412,0.828s1.991,0.492,3.168,0.684 C246.284,81.896,247.568,81.99,248.961,81.99z"></path> <path fill="#FFFFFF" d="M278.191,65.432c0-9.744,2.34-17.137,7.021-22.177s11.483-7.751,20.412-8.136l0.288,3.96 c-2.929,0.192-5.629,0.637-8.1,1.332c-2.473,0.696-4.67,1.776-6.588,3.24c-1.921,1.465-3.529,3.348-4.824,5.652 c-1.297,2.305-2.186,5.137-2.664,8.496c1.295-0.672,2.855-1.26,4.68-1.764s3.768-0.756,5.832-0.756c2.688,0,4.968,0.42,6.84,1.26 s3.385,1.956,4.536,3.348c1.151,1.393,1.991,3,2.521,4.824c0.527,1.824,0.791,3.744,0.791,5.76c0,1.872-0.287,3.744-0.863,5.616 s-1.477,3.563-2.7,5.076c-1.224,1.512-2.761,2.748-4.608,3.708c-1.848,0.959-4.044,1.439-6.588,1.439 c-5.232,0-9.205-1.836-11.916-5.508C279.547,77.131,278.191,72.008,278.191,65.432z M293.816,59.383 c-2.209,0-4.141,0.252-5.797,0.756s-3.203,1.093-4.644,1.764c-0.097,0.817-0.144,1.453-0.144,1.908c0,0.457,0,1.021,0,1.692 c0,2.257,0.154,4.392,0.467,6.408c0.313,2.016,0.889,3.792,1.729,5.327c0.84,1.537,1.955,2.749,3.348,3.637 c1.393,0.889,3.168,1.332,5.328,1.332c1.775,0,3.287-0.324,4.537-0.973c1.247-0.647,2.255-1.499,3.023-2.555 c0.768-1.057,1.332-2.279,1.691-3.673c0.36-1.392,0.541-2.854,0.541-4.392c0-3.84-0.854-6.672-2.557-8.496 C299.636,60.295,297.128,59.383,293.816,59.383z"></path> <path fill="#FFFFFF" d="M317.504,60.318c0-8.447,1.392-14.903,4.176-19.367c2.783-4.464,6.744-6.696,11.881-6.696 c5.086,0,9.035,2.232,11.844,6.696c2.808,4.464,4.211,10.92,4.211,19.367c0,8.4-1.403,14.832-4.211,19.297 c-2.809,4.464-6.758,6.695-11.844,6.695c-5.089,0-9.037-2.231-11.845-6.695C318.908,75.15,317.504,68.719,317.504,60.318z M344.504,60.318c0-2.879-0.18-5.627-0.54-8.243s-0.972-4.932-1.836-6.948s-1.993-3.624-3.384-4.824 c-1.393-1.199-3.121-1.8-5.184-1.8c-2.113,0-3.865,0.601-5.257,1.8c-1.393,1.201-2.509,2.808-3.348,4.824 c-0.841,2.016-1.44,4.332-1.8,6.948c-0.36,2.616-0.541,5.364-0.541,8.243c0,2.881,0.181,5.629,0.541,8.244 c0.359,2.617,0.959,4.922,1.8,6.912c0.839,1.992,1.955,3.589,3.348,4.789c1.392,1.199,3.144,1.799,5.257,1.799 c2.063,0,3.791-0.6,5.184-1.799c1.391-1.2,2.52-2.797,3.384-4.789c0.864-1.99,1.476-4.295,1.836-6.912 C344.324,65.947,344.504,63.199,344.504,60.318z"></path> </g> <text transform="matrix(1 0 0 1 -515.3066 76.9043)" display="none" font-family="'Ubuntu-Bold'" font-size="72">Monad</text> <g> <g> <path fill="#FFFFFF" d="M15.966,37.09c0.866,1.584,1.864,3.541,2.996,5.868c1.13,2.329,2.31,4.849,3.537,7.56 c1.227,2.713,2.442,5.484,3.646,8.316c1.203,2.832,2.333,5.496,3.393,7.992c1.059-2.496,2.189-5.16,3.393-7.992 c1.203-2.832,2.417-5.604,3.645-8.316c1.227-2.711,2.406-5.231,3.538-7.56c1.13-2.328,2.129-4.284,2.996-5.868h10.224 c0.479,3.312,0.924,7.02,1.332,11.124c0.407,4.104,0.767,8.377,1.08,12.815c0.312,4.441,0.6,8.893,0.864,13.356 c0.263,4.464,0.492,8.665,0.684,12.601H46.351c-0.144-4.848-0.336-10.128-0.576-15.84c-0.241-5.713-0.601-11.473-1.08-17.281 c-0.867,2.017-1.83,4.248-2.889,6.697c-1.06,2.447-2.107,4.896-3.142,7.344c-1.035,2.447-2.034,4.787-2.997,7.02 s-1.782,4.141-2.456,5.725h-7.848c-0.675-1.584-1.493-3.492-2.456-5.725s-1.963-4.572-2.998-7.02 c-1.035-2.448-2.083-4.896-3.141-7.344c-1.06-2.449-2.023-4.681-2.889-6.697c-0.48,5.809-0.84,11.568-1.08,17.281 c-0.241,5.712-0.432,10.992-0.576,15.84H1.278c0.191-3.936,0.42-8.137,0.684-12.601c0.263-4.464,0.551-8.915,0.864-13.356 c0.312-4.438,0.671-8.711,1.08-12.815c0.407-4.104,0.852-7.812,1.332-11.124H15.966z"></path> <path fill="#FFFFFF" d="M102.005,67.979c0,2.977-0.432,5.699-1.296,8.172c-0.864,2.473-2.113,4.584-3.744,6.336 c-1.632,1.752-3.588,3.107-5.868,4.067c-2.281,0.96-4.836,1.44-7.668,1.44c-2.785,0-5.317-0.48-7.596-1.44 c-2.28-0.96-4.237-2.315-5.868-4.067c-1.632-1.752-2.905-3.863-3.816-6.336c-0.912-2.473-1.368-5.195-1.368-8.172 s0.468-5.688,1.404-8.137c0.936-2.447,2.232-4.536,3.888-6.264c1.656-1.729,3.624-3.072,5.904-4.032 c2.279-0.959,4.763-1.44,7.452-1.44c2.736,0,5.244,0.48,7.524,1.44c2.279,0.96,4.235,2.304,5.868,4.032 c1.631,1.728,2.904,3.816,3.816,6.264C101.549,62.29,102.005,65.002,102.005,67.979z M91.062,67.979 c0-3.313-0.66-5.916-1.98-7.813c-1.321-1.896-3.204-2.844-5.652-2.844c-2.448,0-4.345,0.947-5.688,2.844 c-1.345,1.896-2.016,4.5-2.016,7.813c0,3.312,0.671,5.939,2.016,7.883c1.343,1.944,3.24,2.916,5.688,2.916 c2.448,0,4.331-0.972,5.652-2.916C90.401,73.918,91.062,71.29,91.062,67.979z"></path> <path fill="#FFFFFF" d="M110.285,50.41c1.824-0.527,4.176-1.02,7.056-1.476c2.88-0.456,5.904-0.684,9.072-0.684 c3.215,0,5.892,0.42,8.028,1.26c2.135,0.84,3.828,2.028,5.076,3.564c1.248,1.536,2.135,3.359,2.664,5.472 c0.527,2.112,0.792,4.464,0.792,7.056v21.385h-10.728V66.898c0-3.457-0.457-5.904-1.368-7.345 c-0.912-1.44-2.617-2.159-5.112-2.159c-0.769,0-1.584,0.035-2.448,0.107c-0.864,0.072-1.632,0.156-2.304,0.252v29.232h-10.728 V50.41z"></path> <path fill="#FFFFFF" d="M166.301,48.106c3.168,0,5.807,0.36,7.92,1.08c2.111,0.72,3.803,1.752,5.076,3.095 c1.271,1.345,2.17,2.978,2.699,4.896c0.527,1.92,0.793,4.057,0.793,6.408v22.32c-1.537,0.336-3.673,0.732-6.408,1.188 c-2.736,0.455-6.049,0.684-9.937,0.684c-2.448,0-4.669-0.215-6.66-0.647c-1.992-0.433-3.708-1.14-5.147-2.124 c-1.44-0.983-2.545-2.268-3.313-3.852c-0.768-1.584-1.152-3.528-1.152-5.832c0-2.207,0.443-4.08,1.332-5.616 c0.888-1.536,2.076-2.76,3.564-3.673c1.487-0.91,3.191-1.57,5.111-1.979c1.92-0.407,3.912-0.612,5.977-0.612 c1.392,0,2.628,0.061,3.708,0.181s1.956,0.276,2.628,0.468v-1.008c0-1.824-0.553-3.287-1.656-4.393 c-1.104-1.104-3.023-1.656-5.76-1.656c-1.824,0-3.625,0.133-5.4,0.396c-1.775,0.265-3.312,0.637-4.607,1.116l-1.368-8.64 c0.624-0.191,1.404-0.396,2.341-0.612c0.936-0.216,1.955-0.407,3.06-0.576c1.104-0.167,2.268-0.312,3.491-0.432 C163.816,48.167,165.052,48.106,166.301,48.106z M167.164,79.498c1.056,0,2.063-0.023,3.024-0.072 c0.96-0.047,1.728-0.119,2.304-0.216v-8.136c-0.432-0.096-1.08-0.191-1.943-0.289c-0.864-0.095-1.656-0.144-2.377-0.144 c-1.008,0-1.956,0.062-2.844,0.181c-0.889,0.12-1.668,0.348-2.34,0.684c-0.673,0.336-1.2,0.792-1.584,1.368 c-0.385,0.575-0.576,1.296-0.576,2.159c0,1.682,0.564,2.845,1.692,3.492C163.647,79.174,165.195,79.498,167.164,79.498z"></path> <path fill="#FFFFFF" d="M225.916,85.762c-0.961,0.288-2.064,0.564-3.313,0.828s-2.555,0.492-3.924,0.684 c-1.367,0.191-2.76,0.348-4.176,0.469c-1.416,0.119-2.771,0.18-4.068,0.18c-3.119,0-5.902-0.457-8.352-1.368 c-2.447-0.911-4.512-2.22-6.191-3.924c-1.682-1.703-2.965-3.768-3.852-6.192c-0.889-2.423-1.332-5.147-1.332-8.172 c0-3.07,0.383-5.844,1.15-8.316c0.768-2.471,1.873-4.571,3.313-6.299c1.439-1.729,3.205-3.049,5.293-3.961 c2.088-0.911,4.475-1.368,7.164-1.368c1.486,0,2.818,0.144,3.996,0.432c1.176,0.288,2.363,0.696,3.563,1.225V32.842l10.729-1.728 V85.762z M201.652,67.762c0,3.313,0.744,5.977,2.232,7.992c1.486,2.016,3.695,3.023,6.623,3.023c0.961,0,1.848-0.035,2.664-0.107 s1.488-0.155,2.016-0.252V58.906c-0.672-0.433-1.547-0.793-2.627-1.08c-1.08-0.289-2.172-0.432-3.275-0.432 C204.195,57.395,201.652,60.85,201.652,67.762z"></path> </g> <path fill="#FFFFFF" d="M8.212,137.846c2.166-13.277,6.292-26.463,12.53-39.162c1.699-3.458,3.526-6.811,5.464-10.063 l-6.583-14.173C10.089,94.943,6.505,116.738,8.212,137.846z"></path> <path fill="#FFFFFF" d="M155.83,14.195C122.511-8.18,84.143-0.646,57.002,29.183l1.308,23.642 c30.052-34.146,73.135-43.066,110.475-17.989c7.958,5.344,15.182,11.916,21.609,19.465 C181.775,37.739,170.107,23.786,155.83,14.195z"></path> </g> </svg>